# xmcd
#
# Track frame offsets: 
#        150
#        15825
#        37208
#        61621
#        87369
#        101147
#        114377
#        130682
#        152147
#        167327
#        180542
#        200110
#        211495
#        231655
#        260973
#        282078
#
# Disc length: 4060 seconds
#
# Revision: 0
# Processed by: cddbd v1.5.2PL0 Copyright (c) Steve Scherf et al.
# Submitted via: ExactAudioCopyFreeDBPlugin 1.0
#
DISCID=e10fda10
DTITLE=Alison Krauss - A Hundred Miles Or More: A Collection
DYEAR=2007
DGENRE=Country
TTITLE0=You're Just A Country Boy
TTITLE1=Simple Love
TTITLE2=Jacob's Dream
TTITLE3=Away Down The River
TTITLE4=Sawing On The Strings
TTITLE5=Down To The River To Pray
TTITLE6=Baby Mine
TTITLE7=Molly Bán (Bawn)
TTITLE8=How's The World Treating You [With James Taylor]
TTITLE9=The Scarlet Tide
TTITLE10=Whiskey Lullaby [With Brad Paisley]
TTITLE11=You Will Be My Ain True Love
TTITLE12=I Give You To His Heart
TTITLE13=Get Me Through December
TTITLE14=Missing You [With John Waite]
TTITLE15=Lay Down Beside Me [With John Waite]
EXTD=
EXTT0=
EXTT1=
EXTT2=
EXTT3=
EXTT4=
EXTT5=
EXTT6=
EXTT7=
EXTT8=
EXTT9=
EXTT10=
EXTT11=
EXTT12=
EXTT13=
EXTT14=
EXTT15=
PLAYORDER=
